<svg xmlns="http://www.w3.org/2000/svg" x="0px" y="0px" viewBox="0 0 864 864" enable-background="new 0 0 864 864"><style>.ls0{fill:#fff}.fs0{fill:#000}</style><g class="fs0"><g><path d="M708.3,439c-59,124.7-148.2,232.9-259.2,315.1l-0.4,0.3L432.6,766c-28.9-21.7-53.7-39.6-92.5-76 C200,558,107.3,379.5,83.7,182.4l-2.6-21.6c115-39.7,220-62.5,351.9-62.5c113.5,0,224.9,18.6,331.3,55.4l20.6,7.1 C773.7,253.2,756.3,337.6,708.3,439z"/></g></g><g transform="translate(123.6375457131 63.8375457131) scale(.7138)"><path class="ls0" d="M161,568.1c-14.5-28.8-24.6-60.3-29.3-93.5c-2-13.9-3-28.2-3-42.7c0-7.9,0.3-15.7,0.9-23.5	c0.9-11.4,2.4-22.6,4.5-33.5l51.7,44.4l34.7-101.5l4.9,97.5l3.3,66l9.3,183.6l4.2,83.4c21.2,12.7,43.7,23.4,67.4,31.8l-3.7-72.3	l-11.3-223.4l-3.3-65.9l-12.6-248.3L275.2,98c-22.6,10.7-44,23.5-63.8,38.4l-53.6,182.6l-55.4-52.7c-20.9,41.4-34.2,87.3-38.1,135.8	C63.4,412.1,63,422,63,432c0,12.3,0.6,24.4,1.8,36.4c4.5,46.1,17.6,89.7,37.5,129.2L161,568.1z"/><path class="ls0" d="M312.2,419.3l3.3,65.8l11.7,231.5l3.6,70.3c21.4,6.1,43.6,10.3,66.4,12.5l-3.4-66.4l-12.5-246.2	c16.8,0.2,33.7,0.4,50.6,0.4c17,0,34-0.1,50.9-0.4l-12.5,246.2l-3.4,66.5c22.8-2.2,45-6.4,66.4-12.5l3.6-70.3l11.7-231.4l3.3-65.8	l13.1-259.7l3.6-70.3C548.1,81,526.4,74.5,504,70.1c-23.3-4.6-47.4-7.1-72-7.1c-24.5,0-48.5,2.4-71.7,7	c-22.4,4.4-44.1,10.9-64.8,19.2l3.6,70.3L312.2,419.3z M432,128.7c23.6,0,46.6,2.7,68.6,7.8l-14.4,284.4c-18,0.3-36.1,0.4-54.2,0.4	c-18,0-36-0.1-53.9-0.4l-14.4-284.4C385.6,131.4,408.5,128.7,432,128.7z"/><path class="ls0" d="M761.7,266.4L703,295.9c17.3,34.3,28.3,72.4,31.4,112.6c-31.6,2.7-63.5,5-95.5,6.9l9.9-195.3l4.2-83.4	c-19.8-14.9-41.2-27.8-63.8-38.5l-3.7,72.3l-12.6,248.1l-3.3,65.9l-11.3,223.3l-3.7,72.3c23.7-8.4,46.2-19.1,67.4-31.8l4.2-83.5	l9.3-183.3c32.4-1.8,64.7-4.1,96.7-6.7c-4.7,33.2-14.8,64.6-29.3,93.5l58.7,29.5c19.9-39.5,33-83.1,37.5-129.2	c1.2-12,1.8-24.1,1.8-36.4c0-10-0.4-19.9-1.2-29.7C795.9,353.7,782.6,307.9,761.7,266.4z"/></g></svg>